<svg xmlns="http://www.w3.org/2000/svg" viewBox="0 0 78.8 44" width="78.8" height="44" fill="#FF5000">
  <circle cx="16" cy="25.8" r="8.7" fill="none" stroke="#FF5000" stroke-width="3"/>
  <circle cx="16" cy="25.8" r="6.12"/>
  <g transform="translate(-2.2 0)">
    <path d="M45.36 36L31.68 36L31.68 31.20L35.76 31.20L35.76 20.96L32.16 20.96L32.16 16.16L40.56 16.16L40.56 19.04L41.28 19.04Q41.84 17.40 43.20 16.50Q44.56 15.60 46.40 15.60L46.40 15.60Q49.36 15.60 51.16 17.46Q52.96 19.32 52.96 23.12L52.96 23.12L52.96 24L47.76 24.48L47.76 23.92Q47.76 22.28 46.92 21.30Q46.08 20.32 44.40 20.32L44.40 20.32Q42.72 20.32 41.76 21.48Q40.80 22.64 40.80 24.80L40.80 24.80L40.80 31.20L45.36 31.20L45.36 36ZM64.92 36.56L64.92 36.56Q62.48 36.56 60.52 35.38Q58.56 34.20 57.40 31.94Q56.24 29.68 56.24 26.44L56.24 26.44L56.24 25.72Q56.24 22.52 57.46 20.26Q58.68 18 60.70 16.80Q62.72 15.60 65.12 15.60L65.12 15.60Q67.52 15.60 68.94 16.50Q70.36 17.40 71.12 19.04L71.12 19.04L71.84 19.04L71.84 8L76.88 8L76.88 36L71.84 36L71.84 33.12L71.12 33.12Q70.52 34.44 69.14 35.50Q67.76 36.56 64.92 36.56ZM66.56 31.76L66.56 31.76Q68.92 31.76 70.38 30.26Q71.84 28.76 71.84 26.32L71.84 26.32L71.84 25.84Q71.84 23.40 70.38 21.90Q68.92 20.40 66.56 20.40L66.56 20.40Q64.24 20.40 62.76 21.88Q61.28 23.36 61.28 25.84L61.28 25.84L61.28 26.32Q61.28 28.80 62.76 30.28Q64.24 31.76 66.56 31.76Z"/>
  </g>
</svg>
